<?xml version="1.0" encoding="UTF-8" standalone="no"?><!DOCTYPE svg PUBLIC "-//W3C//DTD SVG 1.1//EN" "http://www.w3.org/Graphics/SVG/1.1/DTD/svg11.dtd"><svg width="100%" height="100%" viewBox="0 0 308 164" version="1.1" xmlns="http://www.w3.org/2000/svg" xmlns:xlink="http://www.w3.org/1999/xlink" xml:space="preserve" xmlns:serif="http://www.serif.com/" style="fill-rule:evenodd;clip-rule:evenodd;stroke-linejoin:round;stroke-miterlimit:1.41421;"><g><g><path d="M79.356,90.25l3.797,3.559c-11.971,15.556 -26.393,23.334 -43.267,23.334c-11.021,0 -20.328,-3.559 -27.921,-10.678c-3.691,-3.428 -6.605,-7.804 -8.74,-13.13c-2.136,-5.326 -3.204,-11.417 -3.204,-18.272c0,-6.855 1.292,-13.987 3.876,-21.395c2.584,-7.409 6.17,-14.278 10.757,-20.605c4.588,-6.328 9.835,-11.984 15.741,-16.967c5.906,-4.983 12.418,-8.911 19.537,-11.785c7.118,-2.874 14.606,-4.311 22.463,-4.311c7.857,0 14.66,2.505 20.407,7.514c5.748,5.01 8.622,12.023 8.622,21.04c0,5.326 -1.226,10.929 -3.678,16.808c-2.452,5.88 -5.616,11.206 -9.492,15.978c-3.875,4.772 -8.45,8.714 -13.723,11.825c-5.273,3.111 -10.52,4.667 -15.74,4.667c-5.221,0 -9.36,-1.688 -12.419,-5.062c-3.058,-3.375 -4.587,-7.304 -4.587,-11.786c0,-7.699 3.203,-15.147 9.61,-22.345c6.407,-7.198 14.646,-12.511 24.718,-15.938l1.819,4.192c-5.062,1.688 -9.834,4.509 -14.317,8.464c-4.482,3.954 -7.975,8.186 -10.48,12.695c-2.505,4.508 -3.757,8.423 -3.757,11.746c0,6.907 3.849,10.361 11.548,10.361c5.379,0 10.771,-2.373 16.176,-7.118c5.405,-4.746 9.729,-10.323 12.972,-16.73c3.243,-6.406 4.864,-12.576 4.864,-18.508c0,-5.933 -2.004,-10.784 -6.011,-14.554c-4.008,-3.771 -9.334,-5.656 -15.978,-5.656c-6.644,0 -13.473,2.004 -20.486,6.012c-7.014,4.007 -13.223,9.149 -18.628,15.424c-5.405,6.275 -9.834,13.486 -13.288,21.633c-3.454,8.147 -5.181,16.149 -5.181,24.006c0,12.708 4.245,22.042 12.735,28c4.957,3.481 10.586,5.221 16.887,5.221c6.301,0 12.511,-1.543 18.627,-4.627c6.117,-3.085 11.364,-7.422 15.741,-13.012Z" style="fill:#0d0d0d;fill-rule:nonzero;"/><path d="M87.035,95.233c0,-3.955 0.962,-7.765 2.887,-11.429c1.924,-3.665 4.416,-6.763 7.474,-9.294c6.75,-5.484 13.631,-8.226 20.645,-8.226c7.013,0 12.761,1.872 17.243,5.615c4.482,3.744 6.723,8.424 6.723,14.04c0,5.616 -1.542,10.665 -4.627,15.147c-3.085,4.483 -7.158,7.976 -12.22,10.481c-5.063,2.505 -10.586,3.757 -16.571,3.757c-5.985,0 -11.074,-1.885 -15.266,-5.656c-4.192,-3.77 -6.288,-8.582 -6.288,-14.435Zm25.864,15.187c2.426,0 4.707,-0.791 6.842,-2.373c2.136,-1.582 3.757,-3.639 4.865,-6.17c2.162,-4.851 3.243,-9.86 3.243,-15.028c0,-5.168 -0.949,-9.083 -2.848,-11.746c-1.898,-2.663 -4.587,-3.994 -8.068,-3.994c-3.48,0 -6.921,2.267 -10.322,6.802c-3.401,4.535 -5.102,10.309 -5.102,17.322c0,10.125 3.797,15.187 11.39,15.187Z" style="fill:#0d0d0d;fill-rule:nonzero;"/><path d="M171.359,8.859l12.813,0c-2.267,3.902 -5.747,12.563 -10.44,25.983c-4.693,13.421 -8.978,26.92 -12.854,40.498c-3.875,13.579 -5.813,21.884 -5.813,24.916c0,3.032 0.369,4.548 1.107,4.548c2.215,0 5.669,-3.348 10.362,-10.045l3.322,3.164c-2.32,4.007 -4.825,7.382 -7.514,10.124c-4.746,4.851 -8.596,7.277 -11.549,7.277c-5.378,0 -8.068,-3.243 -8.068,-9.729c0,-9.65 3.204,-24.863 9.611,-45.639c6.407,-20.776 12.748,-37.809 19.023,-51.097Z" style="fill:#0d0d0d;fill-rule:nonzero;"/><path d="M181.687,115.324c-2.241,0 -3.994,-0.686 -5.26,-2.057c-1.265,-1.371 -1.898,-3.256 -1.898,-5.655c0,-2.399 0.62,-5.669 1.859,-9.808c1.239,-4.14 2.478,-7.897 3.717,-11.272c1.239,-3.374 1.859,-5.629 1.859,-6.762c0,-1.134 -0.369,-1.701 -1.107,-1.701c-1.846,0 -4.825,3.639 -8.938,10.916l-5.3,-3.085c7.752,-13.078 14.87,-19.616 21.356,-19.616c4.43,0 6.645,2.794 6.645,8.384c0,1.635 -0.528,4.245 -1.582,7.831l-5.695,16.294c-0.58,1.529 -0.87,2.913 -0.87,4.152c0,1.239 0.474,1.859 1.423,1.859c1.793,0 5.089,-3.322 9.888,-9.966l3.322,3.085c-2.848,5.273 -6.236,9.491 -10.164,12.655c-3.929,3.164 -7.014,4.746 -9.255,4.746Zm22.503,-72.414c0,2.136 -0.711,4.074 -2.135,5.814c-1.424,1.74 -3.349,2.61 -5.774,2.61c-2.426,0 -4.245,-0.725 -5.458,-2.175c-1.213,-1.45 -1.819,-3.283 -1.819,-5.497c0,-2.215 0.751,-4.179 2.254,-5.893c1.503,-1.714 3.441,-2.571 5.814,-2.571c2.373,0 4.152,0.752 5.339,2.255c1.186,1.502 1.779,3.322 1.779,5.457Z" style="fill:#0d0d0d;fill-rule:nonzero;"/><path d="M213.926,98.476c0.316,6.064 4.403,9.096 12.26,9.096c2.9,0 5.919,-0.83 9.056,-2.491c3.138,-1.661 5.682,-3.625 7.633,-5.893l3.402,2.215c-4.377,7.329 -11.364,11.812 -20.961,13.446c-2.11,0.317 -4.14,0.475 -6.091,0.475c-5.695,0 -10.441,-1.885 -14.237,-5.656c-3.797,-3.77 -5.695,-8.371 -5.695,-13.802c0,-5.431 1.661,-10.454 4.983,-15.068c3.322,-4.614 7.475,-8.187 12.458,-10.718c4.983,-2.531 9.9,-3.796 14.751,-3.796c4.852,0 9.057,1.107 12.616,3.322c3.56,2.214 5.379,5.194 5.458,8.938c0.079,3.744 -1.015,6.973 -3.282,9.689c-2.268,2.716 -5.142,4.785 -8.622,6.209c-6.908,2.795 -13.684,4.192 -20.328,4.192l-3.401,-0.158Zm-0.475,-4.35c5.853,-0.211 10.56,-1.147 14.119,-2.808c3.559,-1.661 6.038,-3.56 7.435,-5.695c1.398,-2.136 2.096,-4.377 2.096,-6.723c0,-2.347 -0.606,-4.087 -1.819,-5.221c-1.213,-1.134 -2.505,-1.7 -3.876,-1.7c-3.375,0 -6.473,1.173 -9.294,3.519c-2.821,2.347 -4.97,5.194 -6.446,8.543c-1.477,3.348 -2.215,6.71 -2.215,10.085Z" style="fill:#0d0d0d;fill-rule:nonzero;"/><path d="M292.159,76.645c-2.003,0 -4.376,1.279 -7.118,3.837c-2.742,2.557 -5.405,5.681 -7.989,9.373c-4.113,5.906 -8.305,12.708 -12.577,20.407l-2.135,3.796l-11.153,0c0,0 0.817,-2.478 2.452,-7.435c4.588,-13.71 6.881,-21.844 6.881,-24.401c0,-2.558 -0.421,-3.837 -1.265,-3.837c-1.529,0 -3.349,1.82 -5.458,5.458l-2.254,3.836c-0.396,0.712 -0.646,1.147 -0.752,1.306l-5.299,-3.085c4.113,-6.697 7.883,-11.641 11.311,-14.831c3.427,-3.19 6.934,-4.785 10.52,-4.785c1.634,0 3.045,0.685 4.231,2.056c1.187,1.371 1.78,2.993 1.78,4.865c0,1.872 -0.105,3.533 -0.316,4.983c-0.211,1.45 -0.448,2.781 -0.712,3.994c-0.264,1.213 -0.633,2.663 -1.107,4.35c-0.475,1.688 -0.857,2.98 -1.147,3.876c-0.29,0.897 -0.673,2.11 -1.147,3.639c-0.475,1.529 -0.765,2.425 -0.87,2.689c0.949,-1.898 2.557,-4.693 4.825,-8.384c2.267,-3.691 3.744,-6.012 4.429,-6.961c0.686,-0.949 1.635,-2.215 2.848,-3.797c1.212,-1.581 2.28,-2.807 3.203,-3.678c0.923,-0.87 2.03,-1.872 3.322,-3.005c1.292,-1.134 2.518,-1.991 3.678,-2.571c2.953,-1.371 5.801,-2.056 8.543,-2.056c2.742,0 4.943,0.804 6.604,2.412c1.661,1.608 2.492,3.48 2.492,5.616c0,2.136 -0.673,4.008 -2.017,5.616c-1.345,1.608 -2.9,2.412 -4.667,2.412c-1.766,0 -3.151,-0.303 -4.153,-0.909c-1.001,-0.607 -1.687,-1.253 -2.056,-1.938c-1.107,-1.899 -2.083,-2.848 -2.927,-2.848Z" style="fill:#0d0d0d;fill-rule:nonzero;"/></g><g><path d="M63.959,158.141c4.065,0 6.77,-1.949 6.77,-4.847c0,-2.616 -1.635,-3.876 -6.392,-4.853c-2.742,-0.661 -3.719,-1.26 -3.719,-2.331c0,-1.292 1.356,-2.143 3.341,-2.143c1.828,0 3.372,0.945 3.845,2.363l2.296,-0.567c-0.849,-2.393 -3.305,-3.997 -6.141,-3.997c-3.498,0 -5.856,1.824 -5.856,4.533c0,2.331 1.478,3.466 5.698,4.411c3.309,0.756 4.444,1.449 4.444,2.71c0,1.512 -1.733,2.52 -4.286,2.52c-2.647,0 -4.441,-1.386 -4.504,-3.466l-2.36,0c0.063,3.403 2.832,5.667 6.864,5.667Z" style="fill:#0d0d0d;fill-rule:nonzero;"/><path d="M80.903,158.141c3.528,0 6.552,-2.264 7.56,-5.668l-2.52,0c-0.693,2.08 -2.709,3.467 -5.04,3.467c-3.086,0 -5.228,-2.206 -5.354,-5.484l13.008,0l0.252,-0.252c0,-5.039 -3.181,-8.438 -7.906,-8.438c-4.724,0 -7.902,3.273 -7.902,8.187c0,4.916 3.178,8.188 7.902,8.188Zm-5.228,-9.886c0.567,-2.554 2.677,-4.288 5.228,-4.288c2.552,0 4.662,1.734 5.229,4.288l-10.457,0Z" style="fill:#0d0d0d;fill-rule:nonzero;"/><path d="M95.175,157.826l2.583,0l3.306,-12.253l3.307,12.253l2.583,0l5.416,-15.745l-2.645,0l-4,12.883l-3.495,-12.883l-2.299,0l-3.528,12.883l-3.999,-12.883l-2.646,0l5.417,15.745Z" style="fill:#0d0d0d;fill-rule:nonzero;"/><path d="M115.02,139.683l2.516,0l0,-3.461l-2.516,0l0,3.461Zm0,18.143l2.516,0l0,-15.745l-2.516,0l0,15.745Z" style="fill:#0d0d0d;fill-rule:nonzero;"/><path d="M121.32,157.826l2.516,0l0,-9.323c0,-2.709 1.796,-4.536 4.474,-4.536c2.679,0 4.475,1.827 4.475,4.536l0,9.323l2.516,0l0,-9.764c0,-3.78 -2.61,-6.296 -6.55,-6.296c-1.827,0 -3.812,0.943 -4.915,2.327l0,-2.012l-2.516,0l0,15.745Z" style="fill:#0d0d0d;fill-rule:nonzero;"/><path d="M150.676,142.081l0,2.516c-1.166,-1.699 -3.34,-2.831 -5.451,-2.831c-4.506,0 -7.526,3.209 -7.526,8.03c0,4.821 3.02,8.03 7.526,8.03c2.111,0 4.317,-1.132 5.451,-2.799l0,1.101c0,3.401 -2.111,5.671 -5.231,5.671c-2.552,0 -4.569,-1.608 -5.041,-3.973l-2.359,0c0.629,3.689 3.588,6.174 7.4,6.174c4.632,0 7.747,-3.147 7.747,-7.872l0,-14.047l-2.516,0Zm-5.199,13.544c-3.151,0 -5.262,-2.33 -5.262,-5.827c0,-3.499 2.111,-5.831 5.262,-5.831c3.119,0 5.199,2.332 5.199,5.829c0,3.499 -2.08,5.829 -5.199,5.829Z" style="fill:#0d0d0d;fill-rule:nonzero;"/><path d="M169.951,158.141c4.065,0 6.77,-1.949 6.77,-4.847c0,-2.616 -1.635,-3.876 -6.392,-4.853c-2.742,-0.661 -3.719,-1.26 -3.719,-2.331c0,-1.292 1.355,-2.143 3.341,-2.143c1.828,0 3.372,0.945 3.845,2.363l2.296,-0.567c-0.849,-2.393 -3.305,-3.997 -6.141,-3.997c-3.498,0 -5.857,1.824 -5.857,4.533c0,2.331 1.478,3.466 5.699,4.411c3.309,0.756 4.444,1.449 4.444,2.71c0,1.512 -1.733,2.52 -4.286,2.52c-2.647,0 -4.441,-1.386 -4.504,-3.466l-2.361,0c0.063,3.403 2.832,5.667 6.865,5.667Z" style="fill:#0d0d0d;fill-rule:nonzero;"/><path d="M185.383,158.141c0.756,0 1.796,-0.125 2.583,-0.314l0,-1.887l-2.74,0c-1.197,0 -2.016,-0.85 -2.016,-2.142l0,-9.516l4.599,0l0,-2.201l-4.599,0l0,-5.859l-2.516,0l0,5.859l-2.52,0l0,2.201l2.52,0l0,9.516c0,2.614 1.887,4.343 4.689,4.343Z" style="fill:#0d0d0d;fill-rule:nonzero;"/><path d="M204.786,142.081l-2.516,0l0,9.324c0,2.708 -1.796,4.535 -4.474,4.535c-2.679,0 -4.475,-1.827 -4.475,-4.535l0,-9.324l-2.516,0l0,9.765c0,3.779 2.61,6.295 6.549,6.295c1.828,0 3.813,-0.943 4.916,-2.327l0,2.012l2.516,0l0,-15.745Z" style="fill:#0d0d0d;fill-rule:nonzero;"/><path d="M215.624,158.141c2.205,0 4.505,-1.194 5.734,-2.988l0,2.673l2.516,0l0,-21.604l-2.516,0l0,8.533c-1.229,-1.794 -3.529,-2.989 -5.734,-2.989c-4.664,0 -7.81,3.272 -7.81,8.186c0,4.917 3.146,8.189 7.81,8.189Zm0.252,-2.201c-3.309,0 -5.546,-2.394 -5.546,-5.986c0,-3.592 2.237,-5.987 5.546,-5.987c3.277,0 5.482,2.395 5.482,5.987c0,3.592 -2.205,5.986 -5.482,5.986Z" style="fill:#0d0d0d;fill-rule:nonzero;"/><path d="M228.288,139.683l2.516,0l0,-3.461l-2.516,0l0,3.461Zm0,18.143l2.516,0l0,-15.745l-2.516,0l0,15.745Z" style="fill:#0d0d0d;fill-rule:nonzero;"/><path d="M241.736,158.141c4.726,0 7.904,-3.272 7.904,-8.187c0,-4.916 -3.178,-8.188 -7.904,-8.188c-4.727,0 -7.904,3.272 -7.904,8.188c0,4.915 3.177,8.187 7.904,8.187Zm0,-2.201c-3.214,0 -5.388,-2.394 -5.388,-5.986c0,-3.592 2.174,-5.987 5.388,-5.987c3.214,0 5.388,2.395 5.388,5.987c0,3.592 -2.174,5.986 -5.388,5.986Z" style="fill:#0d0d0d;fill-rule:nonzero;"/></g></g></svg>