<?xml version="1.0" encoding="UTF-8" standalone="no"?><!DOCTYPE svg PUBLIC "-//W3C//DTD SVG 1.1//EN" "http://www.w3.org/Graphics/SVG/1.1/DTD/svg11.dtd"><svg width="100%" height="100%" viewBox="0 0 160 160" version="1.1" xmlns="http://www.w3.org/2000/svg" xmlns:xlink="http://www.w3.org/1999/xlink" xml:space="preserve" xmlns:serif="http://www.serif.com/" style="fill-rule:evenodd;clip-rule:evenodd;stroke-linejoin:round;stroke-miterlimit:1.41421;"><g><path d="M142,99.5l-42,0c-2.208,0 -4,1.792 -4,4l0,26c0,2.208 1.792,4 4,4l42,0c2.208,0 4,-1.792 4,-4l0,-26c0,-2.208 -1.792,-4 -4,-4m0,30l-42,0l0,-26l42,0l0,26Z" style="fill:#94406e;fill-rule:nonzero;"/><path d="M115.551,32.689l3.181,-0.853c4.735,-1.268 9.5,1.163 10.644,5.431l5.633,21.025l-4.594,0l-5.326,-19.877c-0.571,-2.131 -2.957,-3.348 -5.321,-2.715l-3.182,0.853l-1.035,-3.864Zm-85.002,22.776l0.757,2.827l-11.306,0l10.549,-2.827Z" style="fill:#94406e;fill-rule:nonzero;"/><path d="M134,57.5l-112,0c-4.418,0 -8,3.582 -8,8l0,72c0,4.418 3.582,8 8,8l112,0c4.418,0 8,-3.582 8,-8l0,-72c0,-4.418 -3.582,-8 -8,-8m0,4c2.206,0 4,1.794 4,4l0,72c0,2.206 -1.794,4 -4,4l-112,0c-2.206,0 -4,-1.794 -4,-4l0,-72c0,-2.206 1.794,-4 4,-4l112,0" style="fill:#94406e;fill-rule:nonzero;"/><path d="M59,135.5l-20,0c-1.104,0 -2,-0.896 -2,-2c0,-1.104 0.896,-2 2,-2l20,0c1.104,0 2,0.896 2,2c0,1.104 -0.896,2 -2,2" style="fill:#94406e;fill-rule:nonzero;"/><path d="M31,135.5l-2,0c-1.104,0 -2,-0.896 -2,-2c0,-1.104 0.896,-2 2,-2l2,0c1.104,0 2,0.896 2,2c0,1.104 -0.896,2 -2,2" style="fill:#94406e;fill-rule:nonzero;"/><path d="M29.997,58.378l-4.86,-18.137c-0.571,-2.132 0.696,-4.327 2.829,-4.899l77.272,-20.705c2.134,-0.572 4.329,0.695 4.901,2.828l10.962,40.913l-4.141,0l-10.687,-39.877l-77.274,20.706l5.138,19.171l-4.14,0Zm8.871,0l-2.36,-8.811c3.579,-1.781 5.759,-5.56 5.512,-9.55l54.484,-14.599c1.783,3.578 5.56,5.759 9.548,5.514l6.319,23.572c-1.764,0.878 -3.188,2.24 -4.149,3.874l-4.443,0c0.837,-2.158 2.203,-4.086 3.988,-5.599l-4.837,-18.053c-3.179,-0.575 -6.062,-2.239 -8.152,-4.705l-16.299,4.368c4.198,2.621 7.769,7.625 9.483,14.023c0.934,3.484 1.184,6.885 0.842,9.966l-4.074,0c0.376,-2.732 0.2,-5.823 -0.634,-8.93c-2.243,-8.379 -8.565,-14.271 -13.798,-12.867c-5.233,1.402 -7.763,9.664 -5.521,18.041c0.354,1.32 0.809,2.578 1.345,3.756l-4.337,0c-0.327,-0.875 -0.618,-1.782 -0.869,-2.719c-1.716,-6.398 -1.124,-12.517 1.198,-16.887l-16.296,4.368c-0.579,3.181 -2.242,6.063 -4.709,8.151l1.899,7.087l-4.14,0Z" style="fill:#94406e;fill-rule:nonzero;"/><circle cx="109" cy="121.5" r="4" style="fill:#94406e;"/></g></svg>