<?xml version="1.0" encoding="UTF-8" standalone="no"?>
<!DOCTYPE svg PUBLIC "-//W3C//DTD SVG 1.1//EN" "http://www.w3.org/Graphics/SVG/1.1/DTD/svg11.dtd">
<svg viewBox="0 0 160 160" xmlns="http://www.w3.org/2000/svg" style="fill-rule:evenodd;clip-rule:evenodd;stroke-linejoin:round;stroke-miterlimit:1.41421;">
<path d="M74.499,3c-0.487,0 -0.973,0.125 -1.41,0.377l-4.517,2.603l-5.037,-1.345c-0.241,-0.065 -0.485,-0.096 -0.728,-0.096c-0.739,0 -1.459,0.291 -1.996,0.825l-3.689,3.684l-5.213,0.004c-1.008,0.001 -1.938,0.538 -2.443,1.41l-2.61,4.513l-5.035,1.353c-0.972,0.262 -1.732,1.022 -1.994,1.995l-1.353,5.034l-4.513,2.61c-0.872,0.505 -1.409,1.435 -1.41,2.443l-0.004,5.213l-3.684,3.69c-0.711,0.712 -0.989,1.75 -0.729,2.723l1.345,5.037l-2.603,4.517c-0.502,0.873 -0.502,1.947 0,2.82l2.603,4.517l-1.345,5.037c-0.26,0.973 0.018,2.011 0.729,2.724l3.684,3.689l0.004,5.213c0.001,1.008 0.538,1.938 1.41,2.443l4.513,2.61l1.353,5.034c0.262,0.973 1.022,1.733 1.994,1.995l5.035,1.353l2.61,4.513c0.505,0.872 1.435,1.409 2.443,1.41l5.213,0.004l3.689,3.684c0.537,0.534 1.257,0.825 1.996,0.825c0.243,0 0.487,-0.031 0.728,-0.096l5.037,-1.345l4.517,2.603c0.437,0.252 0.923,0.377 1.41,0.377c0.487,0 0.973,-0.125 1.41,-0.377l4.517,-2.603l5.037,1.345c0.241,0.065 0.485,0.096 0.728,0.096c0.739,0 1.459,-0.291 1.996,-0.825l3.689,-3.684l5.213,-0.004c1.008,-0.001 1.938,-0.538 2.443,-1.41l2.61,-4.513l5.035,-1.353c0.972,-0.262 1.732,-1.022 1.994,-1.995l1.353,-5.034l4.513,-2.61c0.872,-0.505 1.409,-1.435 1.41,-2.443l0.004,-5.213l3.684,-3.689c0.711,-0.713 0.989,-1.751 0.729,-2.724l-1.345,-5.037l2.603,-4.517c0.503,-0.873 0.503,-1.947 0,-2.82l-2.603,-4.517l1.345,-5.037c0.26,-0.973 -0.018,-2.011 -0.729,-2.723l-3.684,-3.69l-0.004,-5.213c-0.001,-1.008 -0.538,-1.938 -1.41,-2.443l-4.513,-2.61l-1.353,-5.034c-0.262,-0.973 -1.022,-1.733 -1.994,-1.995l-5.035,-1.353l-2.61,-4.513c-0.505,-0.872 -1.435,-1.409 -2.443,-1.41l-5.213,-0.004l-3.689,-3.684c-0.537,-0.534 -1.257,-0.825 -1.996,-0.825c-0.243,0 -0.487,0.031 -0.728,0.096l-5.037,1.345l-4.517,-2.603c-0.437,-0.252 -0.923,-0.377 -1.41,-0.377m0,2.824l5.528,3.186l6.164,-1.647l4.516,4.508l6.38,0.005l3.195,5.523l6.162,1.656l1.656,6.162l5.523,3.195l0.005,6.38l4.508,4.516l-1.647,6.164l3.187,5.528l-3.187,5.528l1.647,6.164l-4.508,4.516l-0.005,6.38l-5.523,3.195l-1.656,6.162l-6.162,1.656l-3.195,5.523l-6.38,0.005l-4.516,4.508l-6.164,-1.647l-5.528,3.186l-5.528,-3.186l-6.164,1.647l-4.516,-4.508l-6.38,-0.005l-3.195,-5.523l-6.162,-1.656l-1.656,-6.162l-5.523,-3.195l-0.005,-6.38l-4.508,-4.516l1.646,-6.164l-3.186,-5.528l3.186,-5.528l-1.646,-6.164l4.508,-4.516l0.005,-6.38l5.523,-3.195l1.656,-6.162l6.162,-1.656l3.195,-5.523l6.38,-0.005l4.516,-4.508l6.164,1.647l5.528,-3.186" style="fill:#94406e;fill-rule:nonzero;"/><path d="M118.5,77.997c-0.217,0.639 -0.262,1.197 -0.864,1.545l-4.513,2.61l-1.352,5.034c-0.262,0.974 -1.023,1.733 -1.994,1.995l-5.036,1.354l-2.61,4.512c-0.505,0.872 -1.435,1.409 -2.443,1.41l-5.213,0.004l-3.689,3.684c-0.537,0.534 -1.257,0.825 -1.996,0.825c-0.242,0 -0.487,-0.031 -0.728,-0.096l-5.037,-1.345l-4.525,2.471l33,55l15,-20l25,-2l-33,-57.003Z" style="fill:#94406e;fill-rule:nonzero;"/><path d="M31.5,79c0.191,0.213 4.915,3.071 4.915,3.071l1.348,5.074c0.261,0.981 1.02,1.747 1.988,2.011l5.02,1.364l2.601,4.549c0.504,0.878 1.431,1.42 2.436,1.421l5.197,0.004l3.677,3.712c0.536,0.539 1.254,0.832 1.99,0.832c0.241,0 5.747,-1.453 5.747,-1.453c0,0 5.047,2.398 5.081,2.415l-23,39l-15,-21l-25,-2l23,-39Z" style="fill:#94406e;fill-rule:nonzero;"/><path d="M74.5,13.952c-20.428,0 -37.048,16.621 -37.048,37.048c0,20.427 16.62,37.047 37.048,37.047c20.427,0 37.048,-16.62 37.048,-37.047c0,-20.427 -16.621,-37.048 -37.048,-37.048m0,75.548c-21.23,0 -38.5,-17.272 -38.5,-38.5c0,-21.23 17.27,-38.5 38.5,-38.5c21.229,0 38.5,17.27 38.5,38.5c0,21.228 -17.271,38.5 -38.5,38.5" style="fill:#94406e;fill-rule:nonzero;"/><g><path d="M52.19,36.554l-5.69,6.163l2.935,2.893l1.479,-1.42l0,10.247l4.159,0l0,-17.883l-2.883,0Z" style="fill:#94406e;fill-rule:nonzero;"/><path d="M61.794,45.685c0,2.74 0.918,4.922 2.781,4.922c1.913,0 2.833,-2.182 2.833,-4.922c0,-3.068 -0.92,-4.97 -2.833,-4.97c-1.863,0 -2.781,1.902 -2.781,4.97m-4.414,0c0,-4.996 2.398,-9.207 7.195,-9.207c4.796,0 7.246,4.211 7.246,9.207c0,4.845 -2.45,9.109 -7.246,9.109c-4.797,0 -7.195,-4.264 -7.195,-9.109" style="fill:#94406e;fill-rule:nonzero;"/><path d="M78.06,45.685c0,2.74 0.921,4.922 2.781,4.922c1.913,0 2.833,-2.182 2.833,-4.922c0,-3.068 -0.92,-4.97 -2.833,-4.97c-1.86,0 -2.781,1.902 -2.781,4.97m-4.414,0c0,-4.996 2.399,-9.207 7.195,-9.207c4.797,0 7.246,4.211 7.246,9.207c0,4.845 -2.449,9.109 -7.246,9.109c-4.796,0 -7.195,-4.264 -7.195,-9.109" style="fill:#94406e;fill-rule:nonzero;"/><path d="M48.364,61.956c0,1.163 0.767,1.928 1.779,1.928c0.464,0 0.996,-0.147 1.359,-0.636l-2.106,0l0,-1.497l4.211,0c0,0.792 -0.138,1.291 -0.246,1.545c-0.483,1.31 -1.927,2.182 -3.218,2.182c-1.987,0 -3.481,-1.477 -3.481,-3.522c0,-2.053 1.534,-3.53 3.481,-3.53c1.338,0 3.158,0.734 3.444,2.884l-1.77,0c-0.247,-0.978 -1.043,-1.252 -1.674,-1.252c-1.012,0 -1.779,0.793 -1.779,1.898" style="fill:#94406e;fill-rule:nonzero;"/><path d="M54.436,63.169l0,-4.645l1.682,0l0,4.635c0,1.027 1.949,1.008 1.949,0l0,-4.635l1.682,0l0,4.645c0,1.545 -1.339,2.309 -2.666,2.299c-1.328,0 -2.647,-0.754 -2.647,-2.299" style="fill:#94406e;fill-rule:nonzero;"/><path d="M62.914,62.651l-0.059,0.157l1.141,0l-0.04,-0.117l-0.53,-1.489l-0.512,1.449Zm1.682,1.712l-2.351,0l-0.384,1.007l-1.801,0l2.755,-6.924l1.2,0l2.864,6.924l-1.899,0l-0.384,-1.007Z" style="fill:#94406e;fill-rule:nonzero;"/><path d="M69.055,61.536l0.964,0c1.014,0 1.024,-1.408 0,-1.408l-0.964,0l0,1.408Zm0,1.516l0,2.318l-1.673,0l0,-6.846l2.676,0c2.734,0 3.139,3.354 1.025,4.361l1.474,2.173l0,0.312l-1.791,0l-1.435,-2.318l-0.276,0Z" style="fill:#94406e;fill-rule:nonzero;"/><path d="M75.919,62.651l-0.059,0.157l1.141,0l-0.04,-0.117l-0.532,-1.489l-0.51,1.449Zm1.683,1.712l-2.352,0l-0.384,1.007l-1.8,0l2.754,-6.924l1.201,0l2.863,6.924l-1.899,0l-0.383,-1.007Z" style="fill:#94406e;fill-rule:nonzero;"/><path d="M80.388,65.37l0,-6.847l1.298,0l2.382,3.424l0,-3.424l1.662,0l0,6.847l-1.318,0l-2.352,-3.335l0,3.335l-1.672,0Z" style="fill:#94406e;fill-rule:nonzero;"/><path d="M88.221,65.37l0,-5.282l-1.86,0l0,-1.565l5.392,0l0,1.565l-1.85,0l0,5.282l-1.682,0Z" style="fill:#94406e;fill-rule:nonzero;"/><path d="M94.047,63.756l2.893,0l0,1.614l-4.546,0l0,-6.846l4.534,0l0,1.612l-2.881,0l0,1l2.823,0l0,1.622l-2.823,0l0,0.998Z" style="fill:#94406e;fill-rule:nonzero;"/><path d="M99.609,63.756l2.891,0l0,1.614l-4.543,0l0,-6.846l4.533,0l0,1.612l-2.881,0l0,1l2.823,0l0,1.622l-2.823,0l0,0.998Z" style="fill:#94406e;fill-rule:nonzero;"/><path d="M99.473,49.742c-0.79,0 -0.808,1.215 0,1.215c0.774,0 0.791,-1.215 0,-1.215m0,3.541c-1.634,0 -3.01,-1.301 -3.01,-2.925c0,-1.642 1.376,-2.941 3.01,-2.941c1.669,0 3.027,1.299 3.027,2.941c0,1.624 -1.358,2.925 -3.027,2.925m-6.897,-9.986c-0.791,0 -0.808,1.213 0,1.213c0.773,0 0.792,-1.213 0,-1.213m8.893,-2.052l-7.896,12.123l-3.249,0l7.894,-12.123l3.251,0Zm-8.893,5.59c-1.634,0 -3.01,-1.299 -3.01,-2.924c0,-1.641 1.376,-2.94 3.01,-2.94c1.668,0 3.028,1.299 3.028,2.94c0,1.625 -1.36,2.924 -3.028,2.924" style="fill:#94406e;fill-rule:nonzero;"/></g></svg>