<?xml version="1.0" encoding="UTF-8" standalone="no"?><!DOCTYPE svg PUBLIC "-//W3C//DTD SVG 1.1//EN" "http://www.w3.org/Graphics/SVG/1.1/DTD/svg11.dtd"><svg width="100%" height="100%" viewBox="0 0 176 176" version="1.1" xmlns="http://www.w3.org/2000/svg" xmlns:xlink="http://www.w3.org/1999/xlink" xml:space="preserve" xmlns:serif="http://www.serif.com/" style="fill-rule:evenodd;clip-rule:evenodd;stroke-linejoin:bevel;stroke-miterlimit:1.41421;"><path d="M39.64,147.317c7.258,2.433 24.491,7.183 48.36,7.183c23.869,0 41.101,-4.75 48.36,-7.183c-12.992,-10.549 -33.065,-50.318 -34.408,-55.022c-1.856,-6.507 -0.906,-12.655 -0.031,-16.713c0.97,-4.496 2.172,-15.859 0.553,-21.752c-0.901,-3.269 -3.088,-6.296 -4.843,-8.727c-1.637,-2.265 -2.819,-3.901 -2.819,-5.49c0,-3.044 1.496,-4.86 4.256,-7.147c2.069,-1.715 2.808,-4.852 2.808,-7.216c0,-3.453 4.191,-3.884 7.322,-4.172c-1.374,-1.148 -2.962,-2.228 -3.667,-2.544c-0.735,0.134 -2.615,0.565 -4.298,0.951c-5.996,1.376 -11.132,2.515 -13.233,2.515c-2.101,0 -7.237,-1.139 -13.233,-2.515c-1.683,-0.386 -3.563,-0.817 -4.298,-0.951c-0.705,0.316 -2.294,1.396 -3.667,2.544c3.131,0.288 7.322,0.719 7.322,4.172c0,2.364 0.738,5.501 2.807,7.215c2.761,2.288 4.257,4.104 4.257,7.148c0,1.589 -1.182,3.225 -2.819,5.49c-1.755,2.431 -3.942,5.458 -4.843,8.727c-1.619,5.893 -0.417,17.256 0.553,21.752c0.875,4.058 1.825,10.206 -0.031,16.712c-1.343,4.705 -21.416,44.474 -34.408,55.023m48.36,11.183c-32.833,0 -52.95,-8.553 -53.791,-8.917c-0.777,-0.337 -1.259,-1.121 -1.205,-1.96c0.055,-0.84 0.633,-1.556 1.447,-1.792c9.702,-2.813 33.792,-47.898 35.712,-54.625c1.613,-5.651 0.754,-11.146 -0.031,-14.788c-0.965,-4.467 -2.429,-16.622 -0.5,-23.64c1.091,-3.962 3.614,-7.454 5.456,-10.004c0.829,-1.148 1.966,-2.721 2.069,-3.243c-0.006,-1.153 -0.396,-1.993 -2.814,-3.997c-2.579,-2.135 -4.152,-5.804 -4.251,-9.874c-0.778,-0.334 -2.774,-0.518 -3.787,-0.611c-2.508,-0.231 -4.32,-0.398 -5.017,-1.976c-0.172,-0.391 -0.479,-1.422 0.386,-2.54c1.538,-1.987 6.52,-6.033 8.665,-6.033c0.545,0 1.435,0.192 5.338,1.088c3.932,0.902 10.513,2.412 12.323,2.412c1.81,0 8.39,-1.51 12.323,-2.412c3.903,-0.896 4.793,-1.088 5.338,-1.088c2.145,0 7.126,4.046 8.665,6.033c0.865,1.118 0.558,2.149 0.386,2.54c-0.697,1.578 -2.509,1.745 -5.017,1.976c-1.013,0.093 -3.009,0.277 -3.787,0.611c-0.1,4.07 -1.672,7.739 -4.252,9.875c-2.417,2.003 -2.807,2.843 -2.807,4.078c0.097,0.44 1.234,2.013 2.063,3.161c1.842,2.55 4.365,6.042 5.456,10.003c1.929,7.019 0.465,19.174 -0.5,23.642c-0.785,3.641 -1.644,9.136 -0.031,14.787c1.92,6.727 26.01,51.812 35.711,54.625c0.815,0.236 1.393,0.952 1.448,1.792c0.054,0.839 -0.428,1.623 -1.205,1.96c-0.841,0.364 -20.958,8.917 -53.791,8.917" style="fill:#94406e;fill-rule:nonzero;"/><path d="M124.001,145.5c-0.29,0 -0.578,-0.125 -0.775,-0.368c-2.037,-2.494 -4.072,-5.207 -6.048,-8.063c-0.315,-0.454 -0.201,-1.077 0.253,-1.391c0.454,-0.316 1.077,-0.201 1.391,0.253c1.948,2.813 3.95,5.483 5.952,7.937c0.35,0.427 0.287,1.057 -0.142,1.407c-0.186,0.151 -0.409,0.225 -0.631,0.225" style="fill:#94406e;fill-rule:nonzero;"/><path d="M112.856,128.8c-0.325,0 -0.644,-0.158 -0.836,-0.45c-9.068,-13.758 -14.044,-26.055 -14.093,-26.177c-0.206,-0.513 0.043,-1.095 0.556,-1.301c0.512,-0.206 1.095,0.044 1.3,0.555c0.049,0.122 4.955,12.242 13.907,25.823c0.304,0.461 0.177,1.081 -0.284,1.385c-0.17,0.112 -0.362,0.165 -0.55,0.165" style="fill:#94406e;fill-rule:nonzero;"/><path d="M51.999,143.5c-0.218,0 -0.438,-0.071 -0.621,-0.217c-0.433,-0.344 -0.505,-0.973 -0.161,-1.405c8.487,-10.678 15.81,-25.665 15.884,-25.815c0.242,-0.496 0.84,-0.703 1.336,-0.462c0.497,0.241 0.704,0.839 0.462,1.336c-0.074,0.152 -7.494,15.337 -16.116,26.185c-0.198,0.249 -0.489,0.378 -0.784,0.378" style="fill:#94406e;fill-rule:nonzero;"/><path d="M88,19.5c1.79,0 8.292,-1.469 12.178,-2.347c1.204,-0.272 2.118,-0.478 2.822,-0.631c-0.056,-0.155 -0.115,-0.302 -0.177,-0.427c-1.271,-2.56 -6.799,-6.125 -7.906,-8.757c-0.543,-1.292 -0.988,-3.892 -0.988,-3.892c0,-1.074 -2.655,-1.946 -5.929,-1.946c-3.274,0 -5.929,0.872 -5.929,1.946c0,0 -0.445,2.6 -0.988,3.892c-1.107,2.632 -6.635,6.197 -7.906,8.757c-0.062,0.125 -0.121,0.272 -0.177,0.427c0.704,0.153 1.618,0.359 2.822,0.631c3.886,0.878 10.388,2.347 12.178,2.347" style="fill:none;fill-rule:nonzero;stroke:#94406e;stroke-width:2px;"/><path d="M100,173.5c-6.065,0 -11,-4.935 -11,-11l0,-7l-2,0l0,7c0,6.065 -4.935,11 -11,11c-0.553,0 -1,0.448 -1,1c0,0.552 0.447,1 1,1c5.399,0 10.039,-3.311 12,-8.008c1.961,4.697 6.601,8.008 12,8.008c0.553,0 1,-0.448 1,-1c0,-0.552 -0.447,-1 -1,-1" style="fill:#94406e;fill-rule:nonzero;"/></svg>