<?xml version="1.0" encoding="UTF-8" standalone="no"?><!DOCTYPE svg PUBLIC "-//W3C//DTD SVG 1.1//EN" "http://www.w3.org/Graphics/SVG/1.1/DTD/svg11.dtd"><svg width="100%" height="100%" viewBox="0 0 160 160" version="1.1" xmlns="http://www.w3.org/2000/svg" xmlns:xlink="http://www.w3.org/1999/xlink" xml:space="preserve" xmlns:serif="http://www.serif.com/" style="fill-rule:evenodd;clip-rule:evenodd;stroke-linejoin:round;stroke-miterlimit:1.41421;"><g><path d="M108,83l-56,0c-0.552,0 -1,-0.448 -1,-1c0,-0.552 0.448,-1 1,-1l56,0c0.552,0 1,0.448 1,1c0,0.552 -0.448,1 -1,1" style="fill:#94406e;fill-rule:nonzero;"/><path d="M54,103l-20,0c-0.552,0 -1,-0.448 -1,-1c0,-0.552 0.448,-1 1,-1l20,0c0.552,0 1,0.448 1,1c0,0.552 -0.448,1 -1,1" style="fill:#94406e;fill-rule:nonzero;"/><path d="M123.717,103l-20,0c-0.552,0 -1,-0.448 -1,-1c0,-0.552 0.448,-1 1,-1l20,0c0.552,0 1,0.448 1,1c0,0.552 -0.448,1 -1,1" style="fill:#94406e;fill-rule:nonzero;"/><path d="M108,75l-56,0c-0.552,0 -1,-0.448 -1,-1c0,-0.552 0.448,-1 1,-1l56,0c0.552,0 1,0.448 1,1c0,0.552 -0.448,1 -1,1" style="fill:#94406e;fill-rule:nonzero;"/><path d="M38.918,60.371l1.97,-1.726c1.532,2.346 1.028,5.222 -1.048,7.038c-2.28,1.994 -5.654,1.866 -7.71,-0.482c-2.054,-2.348 -1.762,-5.744 0.516,-7.738c2.058,-1.796 5.038,-1.952 7.084,-0.118l-1.972,1.726c-2.63,-1.808 -6.122,1.654 -3.688,4.434c2.444,2.794 6.354,-0.284 4.848,-3.134" style="fill:#94406e;fill-rule:nonzero;"/><path d="M45.699,57.849l3.728,-2.31l1.316,2.12l-5.942,3.684l-5.58,-9.006l5.93,-3.674l1.314,2.122l-3.72,2.304l0.816,1.312l3.64,-2.256l1.324,2.136l-3.64,2.256l0.814,1.312Z" style="fill:#94406e;fill-rule:nonzero;"/><path d="M52.088,50.381l1.364,-0.584c1.43,-0.618 0.586,-2.624 -0.86,-2.004l-1.362,0.586l0.858,2.002Zm0.926,2.154l1.414,3.296l-2.364,1.014l-4.18,-9.732l3.784,-1.624c3.866,-1.66 6.484,2.864 4.11,5.582l3.408,2.188l0.194,0.448l-2.532,1.086l-3.444,-2.424l-0.39,0.166Z" style="fill:#94406e;fill-rule:nonzero;"/><path d="M62.813,52.65l-2.08,-7.904l-2.764,0.728l-0.618,-2.34l8.018,-2.112l0.618,2.342l-2.75,0.724l2.08,7.904l-2.504,0.658Z" style="fill:#94406e;fill-rule:nonzero;"/><path d="M74.102,42.163l-1.744,0.214l0.722,5.874l1.742,-0.214l0.286,2.296l-6.056,0.746l-0.284,-2.298l1.744,-0.214l-0.72,-5.872l-1.742,0.214l-0.292,-2.344l6.054,-0.746l0.29,2.344Z" style="fill:#94406e;fill-rule:nonzero;"/><path d="M79.055,50.165l-2.576,-0.038l0.164,-10.596l6.858,0.102l-0.038,2.468l-4.282,-0.064l-0.03,1.892l4.042,0.062l-0.036,2.406l-4.044,-0.062l-0.058,3.83Z" style="fill:#94406e;fill-rule:nonzero;"/><path d="M91.611,42.862l-1.744,-0.228l-0.768,5.874l1.744,0.226l-0.298,2.298l-6.058,-0.79l0.302,-2.298l1.744,0.228l0.766,-5.874l-1.742,-0.228l0.308,-2.342l6.05,0.79l-0.304,2.344Z" style="fill:#94406e;fill-rule:nonzero;"/><path d="M100.602,49.011l2.512,0.74c-1.158,2.544 -3.854,3.66 -6.5,2.884c-2.902,-0.856 -4.602,-3.77 -3.718,-6.762c0.88,-2.992 3.9,-4.564 6.804,-3.708c2.612,0.768 4.342,3.202 3.892,5.912l-2.514,-0.74c0.118,-3.186 -4.672,-4.28 -5.714,-0.738c-1.05,3.558 3.644,5.208 5.238,2.412" style="fill:#94406e;fill-rule:nonzero;"/><path d="M107.717,52.142l-0.188,0.176l1.57,0.786l0.028,-0.19l0.3,-2.426l-1.71,1.654Zm1.132,3.532l-3.242,-1.62l-1.224,1.132l-2.48,-1.242l8.592,-7.7l1.654,0.828l-0.854,11.57l-2.616,-1.308l0.17,-1.66Z" style="fill:#94406e;fill-rule:nonzero;"/><path d="M113.207,60.009l4.68,-6.698l-2.344,-1.638l1.386,-1.984l6.798,4.748l-1.388,1.986l-2.334,-1.63l-4.676,6.698l-2.122,-1.482Z" style="fill:#94406e;fill-rule:nonzero;"/><path d="M122.033,63.654l3.204,2.994l-1.702,1.822l-5.106,-4.768l7.228,-7.738l5.092,4.758l-1.704,1.824l-3.192,-2.984l-1.054,1.128l3.126,2.922l-1.708,1.834l-3.134,-2.92l-1.05,1.128Z" style="fill:#94406e;fill-rule:nonzero;"/><path d="M80,88l1.958,1.128l2.182,-0.584l1.6,1.598l2.26,0.002l1.13,1.956l2.184,0.586l0.584,2.184l1.958,1.13l0.002,2.26l1.596,1.598l-0.582,2.184l1.128,1.958l-1.128,1.958l0.582,2.184l-1.596,1.598l-0.002,2.26l-1.958,1.13l-0.584,2.184l-2.184,0.586l-1.13,1.956l-2.26,0.002l-1.6,1.598l-2.182,-0.584l-1.958,1.128l-1.958,-1.128l-2.182,0.584l-1.602,-1.598l-2.258,-0.002l-1.13,-1.956l-2.184,-0.586l-0.586,-2.184l-1.956,-1.13l-0.002,-2.26l-1.598,-1.598l0.582,-2.184l-1.126,-1.958l1.126,-1.958l-0.582,-2.184l1.598,-1.598l0.002,-2.26l1.956,-1.13l0.586,-2.184l2.184,-0.586l1.13,-1.956l2.258,-0.002l1.602,-1.598l2.182,0.584l1.958,-1.128Z" style="fill:#94406e;fill-rule:nonzero;"/><path d="M93.461,114l-0.116,0.108l0,1.322c0,0.256 -0.15,0.492 -0.388,0.622l-1.242,0.662l-0.374,1.28c-0.07,0.244 -0.28,0.436 -0.55,0.504l-1.384,0.344l-0.718,1.146c-0.14,0.22 -0.394,0.354 -0.676,0.354l-1.43,0.002l-1.018,0.936c-0.146,0.136 -0.344,0.208 -0.548,0.208c-0.07,0 -0.136,-0.006 -0.202,-0.024l-1.386,-0.338l-1.246,0.66c-0.116,0.062 -0.252,0.094 -0.384,0.094c-0.134,0 -0.27,-0.032 -0.386,-0.094l-1.246,-0.66l-0.166,0.04l10.538,16.834l4.788,-6.686l8.674,-0.482l-10.54,-16.832Z" style="fill:#94406e;fill-rule:nonzero;"/><path d="M66.539,114l0.116,0.108l0,1.322c0,0.256 0.15,0.492 0.388,0.622l1.242,0.662l0.374,1.28c0.07,0.244 0.28,0.436 0.55,0.504l1.384,0.344l0.718,1.146c0.14,0.22 0.394,0.354 0.676,0.354l1.43,0.002l1.018,0.936c0.146,0.136 0.344,0.208 0.548,0.208c0.07,0 0.136,-0.006 0.202,-0.024l1.386,-0.338l1.246,0.66c0.116,0.062 0.252,0.094 0.384,0.094c0.134,0 0.27,-0.032 0.386,-0.094l1.246,-0.66l0.166,0.04l-10.538,16.834l-4.788,-6.686l-8.674,-0.482l10.54,-16.832Z" style="fill:#94406e;fill-rule:nonzero;"/><path d="M136,22l-112,0c-4.418,0 -8,3.07 -8,6.858l0,82.284c0,3.788 3.582,6.858 8,6.858l36,0l2.144,-3.996l0,-0.004l-38.144,0c-2.168,0 -4,-1.308 -4,-2.858l0,-82.284c0,-1.55 1.832,-2.858 4,-2.858l112,0c2.168,0 4,1.308 4,2.858l0,82.284c0,1.55 -1.832,2.858 -4,2.858l-38.144,0l0,0.004l2.144,3.996l36,0c4.418,0 8,-3.07 8,-6.858l0,-82.284c0,-3.788 -3.582,-6.858 -8,-6.858" style="fill:#94406e;fill-rule:nonzero;"/></g></svg>