<?xml version="1.0" encoding="UTF-8" standalone="no"?><!DOCTYPE svg PUBLIC "-//W3C//DTD SVG 1.1//EN" "http://www.w3.org/Graphics/SVG/1.1/DTD/svg11.dtd"><svg width="100%" height="100%" viewBox="0 0 176 176" version="1.1" xmlns="http://www.w3.org/2000/svg" xmlns:xlink="http://www.w3.org/1999/xlink" xml:space="preserve" xmlns:serif="http://www.serif.com/" style="fill-rule:evenodd;clip-rule:evenodd;stroke-linejoin:round;stroke-miterlimit:1.41421;"><g><path d="M99.856,174c-6.065,0 -11,-4.935 -11,-11l-2,0c0,6.065 -4.935,11 -11,11c-0.553,0 -1,0.448 -1,1c0,0.552 0.447,1 1,1c5.399,0 10.039,-3.311 12,-8.008c1.961,4.697 6.601,8.008 12,8.008c0.553,0 1,-0.448 1,-1c0,-0.552 -0.447,-1 -1,-1" style="fill:#94406e;fill-rule:nonzero;"/><path d="M28.203,144.129c4.742,-46.681 17.428,-68.904 27.316,-79.344c10.857,-11.462 16.834,-11.707 22.134,-11.792c3.465,-0.056 6.992,1.906 8.757,4.22l1.59,2.085l1.59,-2.085c1.755,-2.3 5.532,-3.908 8.757,-4.22c3.809,-0.369 11.278,0.331 22.135,11.794c9.888,10.441 22.573,32.663 27.315,79.341c-5.655,3.89 -25.833,15.872 -59.797,15.872c-33.974,0 -54.155,-11.989 -59.797,-15.871m48.755,-103.692c0.831,4.064 1.042,8.563 1.042,8.563c0,0 -1.177,0.007 -1.866,0.072c0.167,-2.36 0.471,-6.214 0.824,-8.635m-9.113,10.548c0.31,-1.218 0.681,-3.006 0.939,-4.525c0.82,-4.822 0.665,-13.397 0.523,-20.18c-0.062,-3.009 -0.116,-5.608 -0.058,-7.143c0.213,-5.696 1.508,-6.137 3.313,-6.137c2.379,0 9.754,4.77 14.231,8.157l1.207,0.913l1.207,-0.913c4.476,-3.387 11.851,-8.157 14.23,-8.157c1.806,0 3.101,0.441 3.314,6.137c0.057,1.535 0.004,4.134 -0.059,7.143c-0.141,6.783 -0.317,15.224 0.524,20.18c0.307,1.816 0.629,3.307 0.939,4.525c-1.294,-0.537 -2.762,-1.088 -4.252,-1.535c-0.158,-2.328 -0.504,-6.938 -0.926,-9.747c-0.516,-3.445 0.528,-11.851 0.023,-13.703c-0.683,-2.501 -3.438,-5 -7,-5c-4.813,0 -8,4 -8,4c0,0 -3.188,-4 -8,-4c-3.563,0 -6.318,2.499 -7,5c-0.505,1.852 0.539,10.258 0.022,13.703c-0.422,2.809 -0.767,7.419 -0.925,9.747c-1.491,0.447 -2.958,0.998 -4.252,1.535Zm14.079,-43.603c0.587,-1.416 1.043,-4.102 1.062,-4.216l0.014,-0.08c0.294,-0.348 2.011,-1.086 5,-1.086c2.989,0 4.706,0.738 5,1.086l0.014,0.08c0.019,0.114 0.475,2.8 1.062,4.216c0.596,1.44 2.415,2.299 4.548,3.072c-3.866,1.83 -8.326,4.939 -10.624,6.617c-2.298,-1.678 -6.758,-4.787 -10.624,-6.617c2.133,-0.773 3.952,-1.632 4.548,-3.072m17.118,33.055c0.352,2.421 0.657,6.275 0.824,8.635c-0.689,-0.065 -1.866,-0.072 -1.866,-0.072c0,0 0.211,-4.499 1.042,-8.563m-5.038,8.376c0,0 -4.126,1.691 -6.004,3.305c-1.881,-1.616 -6.004,-3.305 -6.004,-3.305c-0.131,-2.797 -0.792,-12.233 -3.804,-16.223c-1.405,-1.862 -1.842,-3.673 -1.333,-5.537c0.189,-0.694 1.339,-2.053 3.141,-2.053c2.765,0 4.871,2.493 4.872,2.493l3.038,4.038l3.193,-4.008c0.022,-0.025 2.129,-2.523 4.897,-2.523c1.802,0 2.952,1.359 3.141,2.052c0.508,1.865 0.072,3.676 -1.334,5.538c-3.011,3.99 -3.672,13.426 -3.803,16.223m19.521,5.136c0,0 -1.328,-2.04 -2.366,-8.158c-0.777,-4.583 -0.599,-13.163 -0.468,-19.428c0.064,-3.071 0.119,-5.724 0.058,-7.375c-0.112,-2.989 -0.375,-9.988 -7.312,-9.988c-0.57,0 -2.365,0.19 -2.571,0.119c-2.025,-0.689 -4.547,-1.547 -4.942,-2.501c-0.403,-0.973 -0.794,-2.953 -0.927,-3.719c-0.113,-2.001 -3.57,-2.899 -6.997,-2.899c-3.427,0 -6.884,0.898 -6.997,2.899c-0.133,0.766 -0.525,2.746 -0.927,3.719c-0.395,0.954 -5.356,2.645 -5.564,2.716c-0.716,-0.207 -1.379,-0.334 -1.95,-0.334c-6.936,0 -7.199,6.999 -7.311,9.988c-0.062,1.651 -0.006,4.304 0.057,7.375c0.131,6.265 0.31,14.845 -0.467,19.428c-1.025,6.036 -2.37,8.16 -2.37,8.16c-13.82,8.423 -32.709,31.098 -38.471,92.049c0,0 21.5,18 64,18c42.5,0 64,-18 64,-18c-5.762,-60.956 -24.654,-83.63 -38.475,-92.051" style="fill:#94406e;fill-rule:nonzero;"/><path d="M127.656,107.051c0.079,0 0.158,-0.01 0.239,-0.031c0.515,-0.136 0.826,-0.674 0.695,-1.205c-1.193,-4.791 -2.447,-8.893 -3.732,-12.193c-0.197,-0.508 -0.761,-0.754 -1.252,-0.551c-0.495,0.203 -0.734,0.779 -0.537,1.287c1.255,3.219 2.484,7.239 3.654,11.948c0.111,0.448 0.504,0.745 0.933,0.745" style="fill:#94406e;fill-rule:nonzero;"/><path d="M135.036,153c0.03,0 0.061,-0.001 0.093,-0.004c0.529,-0.052 0.918,-0.535 0.866,-1.08c-0.018,-0.211 -2,-21.251 -5.964,-39.829c-0.114,-0.534 -0.629,-0.875 -1.147,-0.755c-0.52,0.118 -0.848,0.645 -0.734,1.179c3.938,18.462 5.909,39.385 5.929,39.593c0.047,0.513 0.466,0.896 0.957,0.896" style="fill:#94406e;fill-rule:nonzero;"/><path d="M41.79,117.258c-0.078,0 -0.157,-0.01 -0.237,-0.031c-0.507,-0.138 -0.814,-0.685 -0.685,-1.224c0.74,-3.063 1.506,-5.861 2.281,-8.315c0.165,-0.528 0.705,-0.81 1.201,-0.637c0.499,0.176 0.767,0.746 0.601,1.273c-0.76,2.409 -1.513,5.16 -2.241,8.178c-0.11,0.454 -0.497,0.756 -0.92,0.756" style="fill:#94406e;fill-rule:nonzero;"/><path d="M35.951,151c-0.042,0 -0.084,-0.003 -0.127,-0.009c-0.52,-0.073 -0.885,-0.58 -0.816,-1.13c0.894,-7.078 2.389,-17.594 4.438,-27.483c0.112,-0.543 0.617,-0.887 1.131,-0.767c0.513,0.119 0.837,0.655 0.725,1.199c-2.035,9.822 -3.52,20.276 -4.41,27.317c-0.064,0.506 -0.471,0.873 -0.941,0.873" style="fill:#94406e;fill-rule:nonzero;"/></g></svg>