<?xml version="1.0" encoding="UTF-8" standalone="no"?><!DOCTYPE svg PUBLIC "-//W3C//DTD SVG 1.1//EN" "http://www.w3.org/Graphics/SVG/1.1/DTD/svg11.dtd"><svg width="100%" height="100%" viewBox="0 0 176 176" version="1.1" xmlns="http://www.w3.org/2000/svg" xmlns:xlink="http://www.w3.org/1999/xlink" xml:space="preserve" xmlns:serif="http://www.serif.com/" style="fill-rule:evenodd;clip-rule:evenodd;stroke-linejoin:round;stroke-miterlimit:1.41421;"><g><path d="M112,12l-10,0c-1.104,0 -2,0.896 -2,2c0,6.617 -5.383,12 -12,12c-6.617,0 -12,-5.383 -12,-12c0,-1.104 -0.896,-2 -2,-2l-10,0c-0.606,0 -1.181,0.275 -1.561,0.749c-0.378,0.473 -0.523,1.093 -0.391,1.685l5.014,22.57c-15.329,11.885 -33.062,33.122 -33.062,76.996c0,1.104 17.25,12 54,12c36.75,0 54,-10.896 54,-12c0,-43.874 -17.733,-65.111 -33.063,-76.996l5.015,-22.57c0.132,-0.592 -0.013,-1.212 -0.391,-1.685c-0.38,-0.474 -0.955,-0.749 -1.561,-0.749m-2.493,4l-4.474,20.137l-0.551,2.475l2.004,1.554c20.817,16.138 31.131,39.709 31.503,72.014c-4.325,2.664 -20.708,9.82 -49.989,9.82c-29.281,0 -45.664,-7.156 -49.989,-9.82c0.372,-32.305 10.686,-55.876 31.503,-72.014l2.004,-1.554l-0.551,-2.475l-4.474,-20.137l5.631,0c0.987,7.882 7.731,14 15.876,14c8.145,0 14.889,-6.118 15.876,-14l5.631,0" style="fill:#94406e;fill-rule:nonzero;"/><path d="M70.042,110c-0.136,0 -0.273,-0.025 -0.405,-0.079c-0.532,-0.215 -0.779,-0.802 -0.554,-1.311c9.876,-22.393 15.793,-51.508 15.852,-51.799c0.107,-0.542 0.644,-0.898 1.22,-0.793c0.565,0.105 0.936,0.629 0.825,1.171c-0.058,0.294 -6.016,29.615 -15.977,52.201c-0.168,0.381 -0.555,0.61 -0.961,0.61" style="fill:#94406e;fill-rule:nonzero;"/><path d="M95.968,84c-0.415,0 -0.807,-0.244 -0.964,-0.643c-4,-10.125 -5.917,-25.587 -5.997,-26.24c-0.066,-0.549 0.338,-1.046 0.904,-1.111c0.567,-0.059 1.079,0.327 1.147,0.876c0.018,0.158 1.968,15.871 5.874,25.761c0.203,0.515 -0.063,1.093 -0.595,1.291c-0.121,0.045 -0.246,0.066 -0.369,0.066" style="fill:#94406e;fill-rule:nonzero;"/><path d="M101,174c-6.065,0 -11,-4.935 -11,-11l0,-37l-2,0l0,37c0,6.065 -4.935,11 -11,11c-0.553,0 -1,0.448 -1,1c0,0.552 0.447,1 1,1c5.399,0 10.039,-3.311 12,-8.008c1.961,4.697 6.601,8.008 12,8.008c0.553,0 1,-0.448 1,-1c0,-0.552 -0.447,-1 -1,-1" style="fill:#94406e;fill-rule:nonzero;"/><path d="M88,42c-1.103,0 -2,0.897 -2,2l0,10c0,1.103 0.897,2 2,2c1.103,0 2,-0.897 2,-2l0,-10c0,-1.103 -0.897,-2 -2,-2m0,16c-2.206,0 -4,-1.794 -4,-4l0,-10c0,-2.206 1.794,-4 4,-4c2.206,0 4,1.794 4,4l0,10c0,2.206 -1.794,4 -4,4" style="fill:#94406e;fill-rule:nonzero;"/><path d="M91.986,53.654c1.431,1.148 6.981,5.38 10.925,5.38c0.839,0 1.471,-0.232 1.933,-0.71c1.296,-1.341 1.16,-4.35 1.079,-6.147c-0.018,-0.394 -0.033,-0.737 -0.033,-1.009c0,-0.852 0.409,-1.753 0.882,-2.794c0.985,-2.167 2.1,-4.623 0.265,-7.496c-0.822,-1.286 -1.985,-1.912 -3.555,-1.912c-2.822,0 -6.893,2.05 -11.496,5.783l0,8.905Zm10.925,7.346c-5.273,0 -12.269,-5.885 -12.563,-6.136l-0.348,-0.294l0,-10.745l0.357,-0.295c3.612,-2.979 8.82,-6.53 13.125,-6.53c2.243,0 4.052,0.977 5.235,2.828c2.404,3.765 0.877,7.128 -0.133,9.352c-0.364,0.8 -0.707,1.557 -0.707,1.988c0,0.249 0.015,0.561 0.031,0.921c0.095,2.111 0.254,5.645 -1.628,7.594c-0.845,0.875 -1.979,1.317 -3.369,1.317" style="fill:#94406e;fill-rule:nonzero;"/><path d="M84.014,53.654c-1.431,1.148 -6.981,5.38 -10.925,5.38c-0.839,0 -1.471,-0.232 -1.933,-0.71c-1.296,-1.341 -1.16,-4.35 -1.079,-6.147c0.018,-0.394 0.033,-0.737 0.033,-1.009c0,-0.852 -0.409,-1.753 -0.882,-2.794c-0.985,-2.167 -2.1,-4.623 -0.265,-7.496c0.822,-1.286 1.985,-1.912 3.555,-1.912c2.822,0 6.893,2.05 11.496,5.783l0,8.905Zm-10.925,7.346c5.273,0 12.269,-5.885 12.563,-6.136l0.348,-0.294l0,-10.745l-0.357,-0.295c-3.612,-2.979 -8.82,-6.53 -13.125,-6.53c-2.243,0 -4.052,0.977 -5.235,2.828c-2.404,3.765 -0.877,7.128 0.133,9.352c0.364,0.8 0.707,1.557 0.707,1.988c0,0.249 -0.015,0.561 -0.031,0.921c-0.095,2.111 -0.254,5.645 1.628,7.594c0.845,0.875 1.979,1.317 3.369,1.317" style="fill:#94406e;fill-rule:nonzero;"/><path d="M106.949,108c-0.329,0 -0.653,-0.16 -0.858,-0.461c-4.895,-7.185 -7.901,-15.705 -8.027,-16.063c-0.199,-0.572 0.083,-1.204 0.628,-1.41c0.545,-0.205 1.15,0.083 1.351,0.656c0.029,0.086 3.038,8.607 7.762,15.541c0.337,0.497 0.227,1.183 -0.247,1.535c-0.184,0.136 -0.398,0.202 -0.609,0.202" style="fill:#94406e;fill-rule:nonzero;"/><path d="M103,16c-0.243,0 -0.486,-0.088 -0.679,-0.266c-0.413,-0.381 -0.839,-0.767 -1.265,-1.153c-2.332,-2.111 -4.535,-4.105 -5.337,-5.989c-0.714,-1.682 -1.277,-4.885 -1.3,-5.021c-0.01,-0.056 -0.015,-0.113 -0.015,-0.171c-0.18,-0.355 -2.368,-1.4 -6.404,-1.4c-4.036,0 -6.224,1.045 -6.414,1.461c0,0.058 0.005,0.054 -0.005,0.11c-0.023,0.136 -0.586,3.339 -1.299,5.02c-0.803,1.885 -3.006,3.879 -5.338,5.99c-0.426,0.386 -0.852,0.772 -1.265,1.153c-0.406,0.374 -1.037,0.351 -1.413,-0.055c-0.375,-0.406 -0.35,-1.038 0.055,-1.413c0.418,-0.387 0.849,-0.777 1.282,-1.168c2.069,-1.873 4.209,-3.81 4.838,-5.289c0.572,-1.347 1.075,-4.052 1.158,-4.513c0.123,-2.276 4.28,-3.296 8.401,-3.296c4.121,0 8.278,1.02 8.401,3.296c0.083,0.461 0.586,3.166 1.159,4.514c0.628,1.478 2.768,3.415 4.837,5.288c0.433,0.391 0.864,0.781 1.282,1.168c0.405,0.375 0.43,1.007 0.055,1.413c-0.197,0.213 -0.465,0.321 -0.734,0.321" style="fill:#94406e;fill-rule:nonzero;"/></g></svg>