<?xml version="1.0" encoding="UTF-8" standalone="no"?><!DOCTYPE svg PUBLIC "-//W3C//DTD SVG 1.1//EN" "http://www.w3.org/Graphics/SVG/1.1/DTD/svg11.dtd"><svg width="100%" height="100%" viewBox="0 0 32 32" version="1.1" xmlns="http://www.w3.org/2000/svg" xmlns:xlink="http://www.w3.org/1999/xlink" xml:space="preserve" xmlns:serif="http://www.serif.com/" style="fill-rule:evenodd;clip-rule:evenodd;stroke-linejoin:round;stroke-miterlimit:1.41421;"><path id="whatsup" d="M15.764,2c-7.863,0 -14.237,6.325 -14.237,14.127c0,2.669 0.746,5.165 2.042,7.294l-2.569,7.579l7.882,-2.504c2.04,1.119 4.385,1.757 6.882,1.757c7.862,0 14.236,-6.324 14.236,-14.126c0,-7.802 -6.374,-14.127 -14.236,-14.127Zm0,26.003c-2.432,0 -4.696,-0.724 -6.586,-1.964l-4.6,1.462l1.495,-4.411c-1.432,-1.958 -2.279,-4.364 -2.279,-6.964c0,-6.549 5.369,-11.876 11.97,-11.876c6.599,0 11.969,5.327 11.969,11.876c0,6.549 -5.37,11.877 -11.969,11.877Zm-3.34,-17.72c-0.23,-0.551 -0.407,-0.57 -0.763,-0.587c-0.122,-0.005 -0.255,-0.011 -0.4,-0.011c-0.459,0 -0.935,0.134 -1.221,0.425c-0.349,0.355 -1.222,1.184 -1.222,2.888c0,1.704 1.251,3.35 1.425,3.581c0.175,0.231 2.439,3.779 5.962,5.227c2.75,1.13 3.566,1.03 4.193,0.894c0.913,-0.198 2.059,-0.865 2.35,-1.674c0.291,-0.808 0.291,-1.502 0.204,-1.645c-0.087,-0.145 -0.32,-0.231 -0.669,-0.405c-0.349,-0.173 -2.065,-1.011 -2.385,-1.126c-0.32,-0.116 -0.616,-0.08 -0.862,0.257c-0.339,0.467 -0.666,0.946 -0.936,1.23c-0.213,0.223 -0.554,0.254 -0.848,0.13c-0.386,-0.163 -1.473,-0.539 -2.807,-1.718c-1.037,-0.918 -1.737,-2.051 -1.941,-2.398c-0.204,-0.347 -0.018,-0.553 0.139,-0.742c0.179,-0.215 0.344,-0.369 0.518,-0.571c0.175,-0.202 0.272,-0.31 0.389,-0.542c0.116,-0.23 0.038,-0.469 -0.05,-0.642c-0.087,-0.173 -0.786,-1.877 -1.076,-2.571Z" style="fill:#fff;"/></svg>